<svg width="156" height="32" viewBox="0 0 156 32" fill="none" xmlns="http://www.w3.org/2000/svg">
<path d="M44.0776 0L29.3851 29.385L27.6565 25.928L39.7562 0H44.0776Z" fill="#FDB022"/>
<path d="M39.3241 0L26.7923 25.0637L25.0637 21.6066L35.4349 0H39.3241Z" fill="#FDB022"/>
<path d="M34.1385 0L24.1994 19.8781L22.4709 16.4211L30.6814 0H34.1385Z" fill="#FDB022"/>
<path d="M13.5577 0.432617C16.4496 6.38741 18.6154 11.0613 20.7823 15.7383C22.9036 20.3166 25.0266 24.8978 27.8312 30.6816H25.338L11.0529 0.432617H13.5577Z" fill="#283F46" stroke="#283F46" stroke-width="0.864266"/>
<path d="M8.3721 0.432617C11.264 6.38741 13.4298 11.0613 15.5967 15.7383C17.7179 20.3166 19.841 24.8978 22.6455 30.6816H20.1524L5.86722 0.432617H8.3721Z" fill="#283F46" stroke="#283F46" stroke-width="0.864266"/>
<path d="M3.18652 0.432617C6.07838 6.38741 8.24418 11.0613 10.4111 15.7383C12.5324 20.3166 14.6554 24.8978 17.46 30.6816H14.9668L0.681641 0.432617H3.18652Z" fill="#283F46" stroke="#283F46" stroke-width="0.864266"/>
<path d="M62.2271 29.385L50.1274 2.59277H54.0166L62.6593 21.6066L70.8698 2.59277H75.1911L63.0914 29.385H62.2271Z" fill="#283F46"/>
<path d="M80.3767 2.59277L92.4764 29.385L88.5872 29.385L85.0516 21.6066L79.9446 10.3712L76.2125 19.0138L71.7341 29.385L67.4127 29.385L79.5124 2.59277L80.3767 2.59277Z" fill="#283F46"/>
<path d="M84.6981 21.6066H75.1911L76.0554 19.8781H83.8338L84.6981 21.6066Z" stroke="#283F46" stroke-width="1.72853"/>
<path d="M93.3408 29.385V2.59277H96.7978V25.928H108.033V29.385H93.3408Z" fill="#283F46"/>
<circle cx="120.997" cy="15.5566" r="12.0997" stroke="#283F46" stroke-width="3.45706"/>
<path d="M136.554 2.59277V29.385H140.443V17.7174H142.172L151.247 29.385H156L146.925 17.7174C149.086 17.7174 152.975 16.2482 152.975 10.3712C152.975 4.49416 148.654 2.73682 146.493 2.59277H136.554Z" fill="#283F46"/>
<path d="M140.011 6.0498V14.6925H146.061C147.213 14.6925 149.518 13.8282 149.518 10.3711C149.518 6.91407 146.637 6.0498 145.197 6.0498H140.011Z" fill="white" stroke="#283F46" stroke-width="0.864266"/>
</svg>
