<svg width="111" height="78" viewBox="0 0 111 78" fill="none" xmlns="http://www.w3.org/2000/svg">
<path d="M110.476 0L73.6508 73.651L69.3184 64.9861L99.6452 0H110.476Z" fill="#FDB022"/>
<path d="M98.5622 0L67.1522 62.8199L62.8198 54.1551L88.8143 0H98.5622Z" fill="#FDB022"/>
<path d="M85.5651 0L60.6537 49.8227L56.3213 41.1579L76.9002 0H85.5651Z" fill="#FDB022"/>
<path d="M33.98 1.08301C41.2286 16.0091 46.6578 27.7242 52.0894 39.4473C57.4061 50.9224 62.7288 62.4035 69.7583 76.9004H63.5063L27.7046 1.08301H33.98Z" fill="#283F46" stroke="#283F46" stroke-width="2.1662"/>
<path d="M20.9824 1.08301C28.2311 16.0091 33.6603 27.7242 39.0918 39.4473C44.4085 50.9224 49.7313 62.4035 56.7607 76.9004H50.5088L14.707 1.08301H20.9824Z" fill="#283F46" stroke="#283F46" stroke-width="2.1662"/>
<path d="M7.98535 1.08301C15.234 16.0091 20.6632 27.7242 26.0947 39.4473C31.4114 50.9224 36.7342 62.4035 43.7637 76.9004H37.5117L1.70996 1.08301H7.98535Z" fill="#283F46" stroke="#283F46" stroke-width="2.1662"/>
</svg>
